# xmcd
#
# Track frame offsets:
#	150
#	21427
#	38799
#	56705
#	73177
#	88223
#	100722
#	114675
#	131508
#	147460
#	164665
#	178758
#	200365
#
# Disc length: 2870 seconds
# Revision: 0
# Processed by: cddbd v1.5.2PL0 Copyright (c) Steve Scherf et al.
# Submitted via: dBpowerAMP V12.0
#
DISCID=c60b340d
DTITLE=Rooster Blues - Death. Sex. Blues
DYEAR=2011
DGENRE=Blues
TTITLE0=Abraham
TTITLE1=Good Good People
TTITLE2=Death. Sex. Blues
TTITLE3=Homicide
TTITLE4=Sweet Liza
TTITLE5=Little Worlds
TTITLE6=Cold War
TTITLE7=Repeat Offender
TTITLE8=Invisible Man
TTITLE9=Dirty Lil Bitch
TTITLE10=Old Whiskey Sound
TTITLE11=Points of You
TTITLE12=Sleeping Blues
EXTD=
EXTT0=
EXTT1=
EXTT2=
EXTT3=
EXTT4=
EXTT5=
EXTT6=
EXTT7=
EXTT8=
EXTT9=
EXTT10=
EXTT11=
EXTT12=
PLAYORDER=
